{"asset":{"version":"2.0","generator":"FlightGear source format conversion"},"scene":0,"scenes":[{"nodes":[0]}],"nodes":[{"mesh":0}],"meshes":[{"primitives":[{"attributes":{"POSITION":0,"NORMAL":1,"TEXCOORD_0":2},"material":0}]}],"materials":[{"name":"1bd1465a5b28a1d2","doubleSided":true,"pbrMetallicRoughness":{"baseColorFactor":[1,1,1,1],"roughnessFactor":0.9,"metallicFactor":0,"baseColorTexture":{"index":0}}}],"textures":[{"source":0,"sampler":0}],"images":[{"uri":"textures/1bd1465a5b28a1d2.png"}],"samplers":[{"magFilter":9729,"minFilter":9987,"wrapS":10497,"wrapT":10497}],"buffers":[{"uri":"cannon.bin","byteLength":25920}],"bufferViews":[{"buffer":0,"byteOffset":0,"byteLength":9720},{"buffer":0,"byteOffset":9720,"byteLength":9720},{"buffer":0,"byteOffset":19440,"byteLength":6480}],"accessors":[{"bufferView":0,"componentType":5126,"count":810,"type":"VEC3","min":[-0.27414751052856445,-0.2975899875164032,-0.5028324723243713],"max":[0.27414751052856445,0.2975899875164032,0.5028324723243713]},{"bufferView":1,"componentType":5126,"count":810,"type":"VEC3","min":[-0.6071186065673828,-0.9986299872398376,-0.9986337423324585],"max":[0.9761229157447815,0.6129494309425354,0.05234307050704956]},{"bufferView":2,"componentType":5126,"count":810,"type":"VEC2","min":[0.0004730669897980988,0.0014730000402778387],"max":[0.2010820060968399,0.061014000326395035]}]}