{"asset":{"version":"2.0","generator":"FlightGear source format conversion"},"scene":0,"scenes":[{"nodes":[0]}],"nodes":[{"mesh":0}],"meshes":[{"primitives":[{"attributes":{"POSITION":0,"NORMAL":1,"TEXCOORD_0":2},"material":0},{"attributes":{"POSITION":3,"NORMAL":4,"TEXCOORD_0":5},"material":1}]}],"materials":[{"name":"source_material","doubleSided":true,"pbrMetallicRoughness":{"baseColorFactor":[0.192,0.192,0.192,1],"roughnessFactor":0.9,"metallicFactor":0}},{"name":"4f268c8f230199a0","doubleSided":true,"pbrMetallicRoughness":{"baseColorFactor":[1,1,1,1],"roughnessFactor":0.9,"metallicFactor":0,"baseColorTexture":{"index":0}}}],"textures":[{"source":0,"sampler":0}],"images":[{"uri":"textures/4f268c8f230199a0.png"}],"samplers":[{"magFilter":9729,"minFilter":9987,"wrapS":10497,"wrapT":10497}],"buffers":[{"uri":"cockpit.bin","byteLength":789696}],"bufferViews":[{"buffer":0,"byteOffset":0,"byteLength":295272},{"buffer":0,"byteOffset":295272,"byteLength":295272},{"buffer":0,"byteOffset":590544,"byteLength":196848},{"buffer":0,"byteOffset":787392,"byteLength":864},{"buffer":0,"byteOffset":788256,"byteLength":864},{"buffer":0,"byteOffset":789120,"byteLength":576}],"accessors":[{"bufferView":0,"componentType":5126,"count":24606,"type":"VEC3","min":[-0.650104820728302,-1.0048129558563232,-0.9045090079307556],"max":[0.6501051783561707,0.2736800014972687,0.9147800207138062]},{"bufferView":1,"componentType":5126,"count":24606,"type":"VEC3","min":[-1.0,-1.0,-1.0],"max":[1.0,1.0,1.0]},{"bufferView":2,"componentType":5126,"count":24606,"type":"VEC2","min":[-2.98022992950564e-08,0.0],"max":[1.0,1.0]},{"bufferView":3,"componentType":5126,"count":72,"type":"VEC3","min":[-0.34960880875587463,-0.4471049904823303,-0.5953575968742371],"max":[0.33222517371177673,-0.19102300703525543,-0.5195028185844421]},{"bufferView":4,"componentType":5126,"count":72,"type":"VEC3","min":[-1.352199490156636e-07,0.28399765491485596,0.9588184356689453],"max":[1.3550662458783336e-07,0.2840197682380676,0.9588249921798706]},{"bufferView":5,"componentType":5126,"count":72,"type":"VEC2","min":[0.005912779830396175,0.006459999829530716],"max":[0.9955649971961975,0.3982979953289032]}]}