{"asset":{"version":"2.0","generator":"FlightGear source format conversion"},"scene":0,"scenes":[{"nodes":[0]}],"nodes":[{"mesh":0}],"meshes":[{"primitives":[{"attributes":{"POSITION":0,"NORMAL":1,"TEXCOORD_0":2},"material":0}]}],"materials":[{"name":"c85c8e462f25506c","doubleSided":true,"pbrMetallicRoughness":{"baseColorFactor":[1,1,1,1],"roughnessFactor":0.9,"metallicFactor":0,"baseColorTexture":{"index":0}},"alphaMode":"MASK","alphaCutoff":0.4}],"textures":[{"source":0,"sampler":0}],"images":[{"uri":"textures/c85c8e462f25506c.png"}],"samplers":[{"magFilter":9729,"minFilter":9987,"wrapS":10497,"wrapT":10497}],"buffers":[{"uri":"missile.bin","byteLength":43776}],"bufferViews":[{"buffer":0,"byteOffset":0,"byteLength":16416},{"buffer":0,"byteOffset":16416,"byteLength":16416},{"buffer":0,"byteOffset":32832,"byteLength":10944}],"accessors":[{"bufferView":0,"componentType":5126,"count":1368,"type":"VEC3","min":[-0.09955000132322311,-0.09956999868154526,-1.5781899690628052],"max":[0.09956999868154526,0.099590003490448,1.5781899690628052]},{"bufferView":1,"componentType":5126,"count":1368,"type":"VEC3","min":[-0.7071067690849304,-1.0,-0.9082194566726685],"max":[1.0,0.7071067690849304,1.0]},{"bufferView":2,"componentType":5126,"count":1368,"type":"VEC2","min":[0.0,0.9369000196456909],"max":[1.0,1.0]}]}