{"asset":{"version":"2.0","generator":"gltfpack 1.2"},"buffers":[{"uri":"corner_post.bin","byteLength":5336}],"bufferViews":[{"buffer":0,"byteOffset":0,"byteLength":1560,"byteStride":12,"target":34962},{"buffer":0,"byteOffset":1560,"byteLength":1560,"byteStride":12,"target":34962},{"buffer":0,"byteOffset":3120,"byteLength":1040,"byteStride":8,"target":34962},{"buffer":0,"byteOffset":4160,"byteLength":1176,"target":34963}],"accessors":[{"bufferView":0,"byteOffset":0,"componentType":5126,"count":130,"type":"VEC3","min":[-0.0700000003,0,-0.429913104],"max":[0.429913133,2.4000001,0.0700000003]},{"bufferView":1,"byteOffset":0,"componentType":5126,"count":130,"type":"VEC3"},{"bufferView":2,"byteOffset":0,"componentType":5126,"count":130,"type":"VEC2"},{"bufferView":3,"byteOffset":0,"componentType":5123,"count":588,"type":"SCALAR"}],"samplers":[{"magFilter":9729,"minFilter":9987}],"images":[{"name":"timber_normal","uri":"textures/c871d8a8e8aa15f23cf3.png"},{"name":"timber_basecolor","uri":"textures/62dd94c433c42bffb8e5.png"},{"name":"timber_metallic-timber_roughness","uri":"textures/3d047fc263888f425df8.png"}],"textures":[{"sampler":0,"source":0},{"sampler":0,"source":1},{"sampler":0,"source":2}],"materials":[{"name":"timber","pbrMetallicRoughness":{"baseColorTexture":{"index":1},"metallicRoughnessTexture":{"index":2}},"normalTexture":{"index":0},"doubleSided":true}],"meshes":[{"primitives":[{"attributes":{"POSITION":0,"NORMAL":1,"TEXCOORD_0":2},"indices":3,"material":0}]}],"nodes":[{"mesh":0}],"scenes":[{"name":"Scene","nodes":[0]}],"scene":0}