{"asset":{"version":"2.0","generator":"gltfpack 1.2"},"buffers":[{"uri":"doorway.bin","byteLength":8740}],"bufferViews":[{"buffer":0,"byteOffset":0,"byteLength":2544,"byteStride":12,"target":34962},{"buffer":0,"byteOffset":2544,"byteLength":2544,"byteStride":12,"target":34962},{"buffer":0,"byteOffset":5088,"byteLength":1696,"byteStride":8,"target":34962},{"buffer":0,"byteOffset":6784,"byteLength":1956,"target":34963}],"accessors":[{"bufferView":0,"byteOffset":0,"componentType":5126,"count":170,"type":"VEC3","min":[-0.900000036,0,-0.0700000003],"max":[0.899999976,2.4000001,0.0700000003]},{"bufferView":1,"byteOffset":0,"componentType":5126,"count":170,"type":"VEC3"},{"bufferView":2,"byteOffset":0,"componentType":5126,"count":170,"type":"VEC2"},{"bufferView":3,"byteOffset":0,"componentType":5123,"count":786,"type":"SCALAR"},{"bufferView":0,"byteOffset":2040,"componentType":5126,"count":42,"type":"VEC3","min":[-0.790000021,2.05000019,-0.0324999988],"max":[0.789999962,2.26999998,0.0324999988]},{"bufferView":1,"byteOffset":2040,"componentType":5126,"count":42,"type":"VEC3"},{"bufferView":2,"byteOffset":1360,"componentType":5126,"count":42,"type":"VEC2"},{"bufferView":3,"byteOffset":1572,"componentType":5123,"count":192,"type":"SCALAR"}],"samplers":[{"magFilter":9729,"minFilter":9987}],"images":[{"name":"timber_normal","uri":"textures/c871d8a8e8aa15f23cf3.png"},{"name":"timber_basecolor","uri":"textures/62dd94c433c42bffb8e5.png"},{"name":"timber_metallic-timber_roughness","uri":"textures/3d047fc263888f425df8.png"},{"name":"plaster_normal","uri":"textures/bfe99fd81828265cc911.png"},{"name":"plaster_basecolor","uri":"textures/be8e79842d25b536024c.png"},{"name":"plaster_metallic-plaster_roughness","uri":"textures/c26bbe34dbe43c0393d7.png"}],"textures":[{"sampler":0,"source":0},{"sampler":0,"source":1},{"sampler":0,"source":2},{"sampler":0,"source":3},{"sampler":0,"source":4},{"sampler":0,"source":5}],"materials":[{"name":"timber","pbrMetallicRoughness":{"baseColorTexture":{"index":1},"metallicRoughnessTexture":{"index":2}},"normalTexture":{"index":0},"doubleSided":true},{"name":"plaster","pbrMetallicRoughness":{"baseColorTexture":{"index":4},"metallicRoughnessTexture":{"index":5}},"normalTexture":{"index":3},"doubleSided":true}],"meshes":[{"primitives":[{"attributes":{"POSITION":0,"NORMAL":1,"TEXCOORD_0":2},"indices":3,"material":0},{"attributes":{"POSITION":4,"NORMAL":5,"TEXCOORD_0":6},"indices":7,"material":1}]}],"nodes":[{"mesh":0}],"scenes":[{"name":"Scene","nodes":[0]}],"scene":0}