{"asset":{"version":"2.0","generator":"gltfpack 1.2"},"buffers":[{"uri":"door_wood.bin","byteLength":30396}],"bufferViews":[{"buffer":0,"byteOffset":0,"byteLength":9036,"byteStride":12,"target":34962},{"buffer":0,"byteOffset":9036,"byteLength":9036,"byteStride":12,"target":34962},{"buffer":0,"byteOffset":18072,"byteLength":6024,"byteStride":8,"target":34962},{"buffer":0,"byteOffset":24096,"byteLength":6300,"target":34963}],"accessors":[{"bufferView":0,"byteOffset":0,"componentType":5126,"count":483,"type":"VEC3","min":[-0.450000018,0,-0.0450000018],"max":[0.450000018,2.05000019,0.0450000018]},{"bufferView":1,"byteOffset":0,"componentType":5126,"count":483,"type":"VEC3"},{"bufferView":2,"byteOffset":0,"componentType":5126,"count":483,"type":"VEC2"},{"bufferView":3,"byteOffset":0,"componentType":5123,"count":2166,"type":"SCALAR"},{"bufferView":0,"byteOffset":5796,"componentType":5126,"count":42,"type":"VEC3","min":[-0.349999994,0.0999999642,-0.0160000008],"max":[0.349999994,1.95000005,0.0160000008]},{"bufferView":1,"byteOffset":5796,"componentType":5126,"count":42,"type":"VEC3"},{"bufferView":2,"byteOffset":3864,"componentType":5126,"count":42,"type":"VEC2"},{"bufferView":3,"byteOffset":4332,"componentType":5123,"count":192,"type":"SCALAR"},{"bufferView":0,"byteOffset":6300,"componentType":5126,"count":228,"type":"VEC3","min":[0.245135158,0.888635159,-0.0410000011],"max":[0.31286487,0.95636487,0.0410000011]},{"bufferView":1,"byteOffset":6300,"componentType":5126,"count":228,"type":"VEC3"},{"bufferView":2,"byteOffset":4200,"componentType":5126,"count":228,"type":"VEC2"},{"bufferView":3,"byteOffset":4716,"componentType":5123,"count":792,"type":"SCALAR"}],"samplers":[{"magFilter":9729,"minFilter":9987}],"images":[{"name":"timber_normal","uri":"textures/c871d8a8e8aa15f23cf3.png"},{"name":"timber_basecolor","uri":"textures/62dd94c433c42bffb8e5.png"},{"name":"timber_metallic-timber_roughness","uri":"textures/3d047fc263888f425df8.png"},{"name":"cedar_normal","uri":"textures/e525af41a3c15c2bd8c5.png"},{"name":"cedar_basecolor","uri":"textures/a0b340b679c629cf3499.png"},{"name":"cedar_metallic-cedar_roughness","uri":"textures/1f7898a34a89b61839e3.png"},{"name":"iron_normal","uri":"textures/346db5727695c55f1db6.png"},{"name":"iron_basecolor","uri":"textures/051a839bae6f87c976df.png"},{"name":"iron_metallic-iron_roughness","uri":"textures/6ab9b0005dc5caabc882.png"}],"textures":[{"sampler":0,"source":0},{"sampler":0,"source":1},{"sampler":0,"source":2},{"sampler":0,"source":3},{"sampler":0,"source":4},{"sampler":0,"source":5},{"sampler":0,"source":6},{"sampler":0,"source":7},{"sampler":0,"source":8}],"materials":[{"name":"timber","pbrMetallicRoughness":{"baseColorTexture":{"index":1},"metallicRoughnessTexture":{"index":2}},"normalTexture":{"index":0},"doubleSided":true},{"name":"cedar","pbrMetallicRoughness":{"baseColorTexture":{"index":4},"metallicRoughnessTexture":{"index":5}},"normalTexture":{"index":3},"doubleSided":true},{"name":"iron","pbrMetallicRoughness":{"baseColorTexture":{"index":7},"metallicRoughnessTexture":{"index":8}},"normalTexture":{"index":6},"doubleSided":true}],"meshes":[{"primitives":[{"attributes":{"POSITION":0,"NORMAL":1,"TEXCOORD_0":2},"indices":3,"material":0},{"attributes":{"POSITION":4,"NORMAL":5,"TEXCOORD_0":6},"indices":7,"material":1},{"attributes":{"POSITION":8,"NORMAL":9,"TEXCOORD_0":10},"indices":11,"material":2}]}],"nodes":[{"mesh":0}],"scenes":[{"name":"Scene","nodes":[0]}],"scene":0}