{"asset":{"version":"2.0","generator":"gltfpack 1.2"},"buffers":[{"uri":"engawa.bin","byteLength":32244}],"bufferViews":[{"buffer":0,"byteOffset":0,"byteLength":9432,"byteStride":12,"target":34962},{"buffer":0,"byteOffset":9432,"byteLength":9432,"byteStride":12,"target":34962},{"buffer":0,"byteOffset":18864,"byteLength":6288,"byteStride":8,"target":34962},{"buffer":0,"byteOffset":25152,"byteLength":7092,"target":34963}],"accessors":[{"bufferView":0,"byteOffset":0,"componentType":5126,"count":262,"type":"VEC3","min":[-0.899999976,0,-0.379999995],"max":[0.899999976,0.449999988,0.380000025]},{"bufferView":1,"byteOffset":0,"componentType":5126,"count":262,"type":"VEC3"},{"bufferView":2,"byteOffset":0,"componentType":5126,"count":262,"type":"VEC2"},{"bufferView":3,"byteOffset":0,"componentType":5123,"count":1182,"type":"SCALAR"},{"bufferView":0,"byteOffset":3144,"componentType":5126,"count":524,"type":"VEC3","min":[-0.898499966,0.439999998,-0.449999988],"max":[0.898500085,0.49000001,0.449999988]},{"bufferView":1,"byteOffset":3144,"componentType":5126,"count":524,"type":"VEC3"},{"bufferView":2,"byteOffset":2096,"componentType":5126,"count":524,"type":"VEC2"},{"bufferView":3,"byteOffset":2364,"componentType":5123,"count":2364,"type":"SCALAR"}],"samplers":[{"magFilter":9729,"minFilter":9987}],"images":[{"name":"timber_normal","uri":"textures/c871d8a8e8aa15f23cf3.png"},{"name":"timber_basecolor","uri":"textures/62dd94c433c42bffb8e5.png"},{"name":"timber_metallic-timber_roughness","uri":"textures/3d047fc263888f425df8.png"},{"name":"cedar_normal","uri":"textures/e525af41a3c15c2bd8c5.png"},{"name":"cedar_basecolor","uri":"textures/a0b340b679c629cf3499.png"},{"name":"cedar_metallic-cedar_roughness","uri":"textures/1f7898a34a89b61839e3.png"}],"textures":[{"sampler":0,"source":0},{"sampler":0,"source":1},{"sampler":0,"source":2},{"sampler":0,"source":3},{"sampler":0,"source":4},{"sampler":0,"source":5}],"materials":[{"name":"timber","pbrMetallicRoughness":{"baseColorTexture":{"index":1},"metallicRoughnessTexture":{"index":2}},"normalTexture":{"index":0},"doubleSided":true},{"name":"cedar","pbrMetallicRoughness":{"baseColorTexture":{"index":4},"metallicRoughnessTexture":{"index":5}},"normalTexture":{"index":3},"doubleSided":true}],"meshes":[{"primitives":[{"attributes":{"POSITION":0,"NORMAL":1,"TEXCOORD_0":2},"indices":3,"material":0},{"attributes":{"POSITION":4,"NORMAL":5,"TEXCOORD_0":6},"indices":7,"material":1}]}],"nodes":[{"mesh":0}],"scenes":[{"name":"Scene","nodes":[0]}],"scene":0}