{"asset":{"version":"2.0","generator":"gltfpack 1.2"},"buffers":[{"uri":"fence.bin","byteLength":95148}],"bufferViews":[{"buffer":0,"byteOffset":0,"byteLength":28260,"byteStride":12,"target":34962},{"buffer":0,"byteOffset":28260,"byteLength":28260,"byteStride":12,"target":34962},{"buffer":0,"byteOffset":56520,"byteLength":18840,"byteStride":8,"target":34962},{"buffer":0,"byteOffset":75360,"byteLength":19788,"target":34963}],"accessors":[{"bufferView":0,"byteOffset":0,"componentType":5126,"count":1217,"type":"VEC3","min":[-0.899999976,0,-0.0480000004],"max":[0.900000036,1,0.0480000004]},{"bufferView":1,"byteOffset":0,"componentType":5126,"count":1217,"type":"VEC3"},{"bufferView":2,"byteOffset":0,"componentType":5126,"count":1217,"type":"VEC2"},{"bufferView":3,"byteOffset":0,"componentType":5123,"count":4764,"type":"SCALAR"},{"bufferView":0,"byteOffset":14604,"componentType":5126,"count":1138,"type":"VEC3","min":[-0.807499945,0.25999999,-0.0249999985],"max":[0.807499945,0.709999979,0.0350000001]},{"bufferView":1,"byteOffset":14604,"componentType":5126,"count":1138,"type":"VEC3"},{"bufferView":2,"byteOffset":9736,"componentType":5126,"count":1138,"type":"VEC2"},{"bufferView":3,"byteOffset":9528,"componentType":5123,"count":5130,"type":"SCALAR"}],"samplers":[{"magFilter":9729,"minFilter":9987}],"images":[{"name":"bamboo_normal","uri":"textures/9724c2499c63a76ef73e.png"},{"name":"bamboo_basecolor","uri":"textures/d0c7724e287449d7c031.png"},{"name":"bamboo_metallic-bamboo_roughness","uri":"textures/eee353eb130e85ea981b.png"},{"name":"iron_normal","uri":"textures/346db5727695c55f1db6.png"},{"name":"iron_basecolor","uri":"textures/051a839bae6f87c976df.png"},{"name":"iron_metallic-iron_roughness","uri":"textures/6ab9b0005dc5caabc882.png"}],"textures":[{"sampler":0,"source":0},{"sampler":0,"source":1},{"sampler":0,"source":2},{"sampler":0,"source":3},{"sampler":0,"source":4},{"sampler":0,"source":5}],"materials":[{"name":"bamboo","pbrMetallicRoughness":{"baseColorTexture":{"index":1},"metallicRoughnessTexture":{"index":2}},"normalTexture":{"index":0},"doubleSided":true},{"name":"iron","pbrMetallicRoughness":{"baseColorTexture":{"index":4},"metallicRoughnessTexture":{"index":5}},"normalTexture":{"index":3},"doubleSided":true}],"meshes":[{"primitives":[{"attributes":{"POSITION":0,"NORMAL":1,"TEXCOORD_0":2},"indices":3,"material":0},{"attributes":{"POSITION":4,"NORMAL":5,"TEXCOORD_0":6},"indices":7,"material":1}]}],"nodes":[{"mesh":0}],"scenes":[{"name":"Scene","nodes":[0]}],"scene":0}