{"asset":{"version":"2.0","generator":"gltfpack 1.2"},"buffers":[{"uri":"foundation.bin","byteLength":12432}],"bufferViews":[{"buffer":0,"byteOffset":0,"byteLength":3636,"byteStride":12,"target":34962},{"buffer":0,"byteOffset":3636,"byteLength":3636,"byteStride":12,"target":34962},{"buffer":0,"byteOffset":7272,"byteLength":2424,"byteStride":8,"target":34962},{"buffer":0,"byteOffset":9696,"byteLength":2736,"target":34963}],"accessors":[{"bufferView":0,"byteOffset":0,"componentType":5126,"count":42,"type":"VEC3","min":[-0.899999976,0.049999997,-0.899999976],"max":[0.899999976,0.410000026,0.899999976]},{"bufferView":1,"byteOffset":0,"componentType":5126,"count":42,"type":"VEC3"},{"bufferView":2,"byteOffset":0,"componentType":5126,"count":42,"type":"VEC2"},{"bufferView":3,"byteOffset":0,"componentType":5123,"count":192,"type":"SCALAR"},{"bufferView":0,"byteOffset":504,"componentType":5126,"count":175,"type":"VEC3","min":[-0.879999995,0,-0.879999995],"max":[0.879999995,0.180000007,0.879999995]},{"bufferView":1,"byteOffset":504,"componentType":5126,"count":175,"type":"VEC3"},{"bufferView":2,"byteOffset":336,"componentType":5126,"count":175,"type":"VEC2"},{"bufferView":3,"byteOffset":384,"componentType":5123,"count":786,"type":"SCALAR"},{"bufferView":0,"byteOffset":2604,"componentType":5126,"count":86,"type":"VEC3","min":[-0.899999976,0.319999993,-0.899999976],"max":[0.899999976,0.449999988,0.899999976]},{"bufferView":1,"byteOffset":2604,"componentType":5126,"count":86,"type":"VEC3"},{"bufferView":2,"byteOffset":1736,"componentType":5126,"count":86,"type":"VEC2"},{"bufferView":3,"byteOffset":1956,"componentType":5123,"count":390,"type":"SCALAR"}],"samplers":[{"magFilter":9729,"minFilter":9987}],"images":[{"name":"earth_normal","uri":"textures/670c91a55f149735844a.png"},{"name":"earth_basecolor","uri":"textures/490424f4b2fd63cd25a2.png"},{"name":"earth_metallic-earth_roughness","uri":"textures/97b311d3ca53e8f085cd.png"},{"name":"stone_normal","uri":"textures/81011a4388e7758780d9.png"},{"name":"stone_basecolor","uri":"textures/2543938f684f243dc5e9.png"},{"name":"stone_metallic-stone_roughness","uri":"textures/97d05893a7af12ffa21a.png"},{"name":"timber_normal","uri":"textures/c871d8a8e8aa15f23cf3.png"},{"name":"timber_basecolor","uri":"textures/62dd94c433c42bffb8e5.png"},{"name":"timber_metallic-timber_roughness","uri":"textures/3d047fc263888f425df8.png"}],"textures":[{"sampler":0,"source":0},{"sampler":0,"source":1},{"sampler":0,"source":2},{"sampler":0,"source":3},{"sampler":0,"source":4},{"sampler":0,"source":5},{"sampler":0,"source":6},{"sampler":0,"source":7},{"sampler":0,"source":8}],"materials":[{"name":"earth","pbrMetallicRoughness":{"baseColorTexture":{"index":1},"metallicRoughnessTexture":{"index":2}},"normalTexture":{"index":0},"doubleSided":true},{"name":"stone","pbrMetallicRoughness":{"baseColorTexture":{"index":4},"metallicRoughnessTexture":{"index":5}},"normalTexture":{"index":3},"doubleSided":true},{"name":"timber","pbrMetallicRoughness":{"baseColorTexture":{"index":7},"metallicRoughnessTexture":{"index":8}},"normalTexture":{"index":6},"doubleSided":true}],"meshes":[{"primitives":[{"attributes":{"POSITION":0,"NORMAL":1,"TEXCOORD_0":2},"indices":3,"material":0},{"attributes":{"POSITION":4,"NORMAL":5,"TEXCOORD_0":6},"indices":7,"material":1},{"attributes":{"POSITION":8,"NORMAL":9,"TEXCOORD_0":10},"indices":11,"material":2}]}],"nodes":[{"mesh":0}],"scenes":[{"name":"Scene","nodes":[0]}],"scene":0}