{"asset":{"version":"2.0","generator":"gltfpack 1.2"},"buffers":[{"uri":"lattice_window.bin","byteLength":35476}],"bufferViews":[{"buffer":0,"byteOffset":0,"byteLength":10356,"byteStride":12,"target":34962},{"buffer":0,"byteOffset":10356,"byteLength":10356,"byteStride":12,"target":34962},{"buffer":0,"byteOffset":20712,"byteLength":6904,"byteStride":8,"target":34962},{"buffer":0,"byteOffset":27616,"byteLength":7860,"target":34963}],"accessors":[{"bufferView":0,"byteOffset":0,"componentType":5126,"count":170,"type":"VEC3","min":[-0.900000036,0,-0.0700000003],"max":[0.899999976,2.4000001,0.0700000003]},{"bufferView":1,"byteOffset":0,"componentType":5126,"count":170,"type":"VEC3"},{"bufferView":2,"byteOffset":0,"componentType":5126,"count":170,"type":"VEC2"},{"bufferView":3,"byteOffset":0,"componentType":5123,"count":786,"type":"SCALAR"},{"bufferView":0,"byteOffset":2040,"componentType":5126,"count":86,"type":"VEC3","min":[-0.790000021,0.0800000429,-0.0500000007],"max":[0.789999962,2.30999994,0.0500000007]},{"bufferView":1,"byteOffset":2040,"componentType":5126,"count":86,"type":"VEC3"},{"bufferView":2,"byteOffset":1360,"componentType":5126,"count":86,"type":"VEC2"},{"bufferView":3,"byteOffset":1572,"componentType":5123,"count":390,"type":"SCALAR"},{"bufferView":0,"byteOffset":3072,"componentType":5126,"count":565,"type":"VEC3","min":[-0.810000002,0.784999967,-0.100000001],"max":[0.809999943,1.93499994,0.100000001]},{"bufferView":1,"byteOffset":3072,"componentType":5126,"count":565,"type":"VEC3"},{"bufferView":2,"byteOffset":2048,"componentType":5126,"count":565,"type":"VEC2"},{"bufferView":3,"byteOffset":2352,"componentType":5123,"count":2562,"type":"SCALAR"},{"bufferView":0,"byteOffset":9852,"componentType":5126,"count":42,"type":"VEC3","min":[-0.769999981,0.850000024,-0.0610000007],"max":[0.769999981,1.87,-0.0489999987]},{"bufferView":1,"byteOffset":9852,"componentType":5126,"count":42,"type":"VEC3"},{"bufferView":2,"byteOffset":6568,"componentType":5126,"count":42,"type":"VEC2"},{"bufferView":3,"byteOffset":7476,"componentType":5123,"count":192,"type":"SCALAR"}],"samplers":[{"magFilter":9729,"minFilter":9987}],"images":[{"name":"timber_normal","uri":"textures/c871d8a8e8aa15f23cf3.png"},{"name":"timber_basecolor","uri":"textures/62dd94c433c42bffb8e5.png"},{"name":"timber_metallic-timber_roughness","uri":"textures/3d047fc263888f425df8.png"},{"name":"plaster_normal","uri":"textures/bfe99fd81828265cc911.png"},{"name":"plaster_basecolor","uri":"textures/be8e79842d25b536024c.png"},{"name":"plaster_metallic-plaster_roughness","uri":"textures/c26bbe34dbe43c0393d7.png"},{"name":"cedar_normal","uri":"textures/e525af41a3c15c2bd8c5.png"},{"name":"cedar_basecolor","uri":"textures/a0b340b679c629cf3499.png"},{"name":"cedar_metallic-cedar_roughness","uri":"textures/1f7898a34a89b61839e3.png"},{"name":"paper_normal","uri":"textures/343792d3de74eb2acc12.png"},{"name":"paper_basecolor","uri":"textures/04eb6ed1cc7581ceec8f.png"},{"name":"paper_metallic-paper_roughness","uri":"textures/5dbb8fff6077db12a6d8.png"}],"textures":[{"sampler":0,"source":0},{"sampler":0,"source":1},{"sampler":0,"source":2},{"sampler":0,"source":3},{"sampler":0,"source":4},{"sampler":0,"source":5},{"sampler":0,"source":6},{"sampler":0,"source":7},{"sampler":0,"source":8},{"sampler":0,"source":9},{"sampler":0,"source":10},{"sampler":0,"source":11}],"materials":[{"name":"timber","pbrMetallicRoughness":{"baseColorTexture":{"index":1},"metallicRoughnessTexture":{"index":2}},"normalTexture":{"index":0},"doubleSided":true},{"name":"plaster","pbrMetallicRoughness":{"baseColorTexture":{"index":4},"metallicRoughnessTexture":{"index":5}},"normalTexture":{"index":3},"doubleSided":true},{"name":"cedar","pbrMetallicRoughness":{"baseColorTexture":{"index":7},"metallicRoughnessTexture":{"index":8}},"normalTexture":{"index":6},"doubleSided":true},{"name":"paper","pbrMetallicRoughness":{"baseColorTexture":{"index":10},"metallicRoughnessTexture":{"index":11}},"normalTexture":{"index":9},"doubleSided":true}],"meshes":[{"primitives":[{"attributes":{"POSITION":0,"NORMAL":1,"TEXCOORD_0":2},"indices":3,"material":0},{"attributes":{"POSITION":4,"NORMAL":5,"TEXCOORD_0":6},"indices":7,"material":1},{"attributes":{"POSITION":8,"NORMAL":9,"TEXCOORD_0":10},"indices":11,"material":2},{"attributes":{"POSITION":12,"NORMAL":13,"TEXCOORD_0":14},"indices":15,"material":3}]}],"nodes":[{"mesh":0}],"scenes":[{"name":"Scene","nodes":[0]}],"scene":0}