{"asset":{"version":"2.0","generator":"gltfpack 1.2"},"buffers":[{"uri":"low_table.bin","byteLength":12604}],"bufferViews":[{"buffer":0,"byteOffset":0,"byteLength":3696,"byteStride":12,"target":34962},{"buffer":0,"byteOffset":3696,"byteLength":3696,"byteStride":12,"target":34962},{"buffer":0,"byteOffset":7392,"byteLength":2464,"byteStride":8,"target":34962},{"buffer":0,"byteOffset":9856,"byteLength":2748,"target":34963}],"accessors":[{"bufferView":0,"byteOffset":0,"componentType":5126,"count":45,"type":"VEC3","min":[-0.524999976,0.297499985,-0.349999994],"max":[0.524999976,0.352499992,0.349999994]},{"bufferView":1,"byteOffset":0,"componentType":5126,"count":45,"type":"VEC3"},{"bufferView":2,"byteOffset":0,"componentType":5126,"count":45,"type":"VEC2"},{"bufferView":3,"byteOffset":0,"componentType":5123,"count":192,"type":"SCALAR"},{"bufferView":0,"byteOffset":540,"componentType":5126,"count":263,"type":"VEC3","min":[-0.462500006,0,-0.282499999],"max":[0.462500006,0.314999998,0.282499999]},{"bufferView":1,"byteOffset":540,"componentType":5126,"count":263,"type":"VEC3"},{"bufferView":2,"byteOffset":360,"componentType":5126,"count":263,"type":"VEC2"},{"bufferView":3,"byteOffset":384,"componentType":5123,"count":1182,"type":"SCALAR"}],"samplers":[{"magFilter":9729,"minFilter":9987}],"images":[{"name":"cedar_normal","uri":"textures/e525af41a3c15c2bd8c5.png"},{"name":"cedar_basecolor","uri":"textures/a0b340b679c629cf3499.png"},{"name":"cedar_metallic-cedar_roughness","uri":"textures/1f7898a34a89b61839e3.png"},{"name":"timber_normal","uri":"textures/c871d8a8e8aa15f23cf3.png"},{"name":"timber_basecolor","uri":"textures/62dd94c433c42bffb8e5.png"},{"name":"timber_metallic-timber_roughness","uri":"textures/3d047fc263888f425df8.png"}],"textures":[{"sampler":0,"source":0},{"sampler":0,"source":1},{"sampler":0,"source":2},{"sampler":0,"source":3},{"sampler":0,"source":4},{"sampler":0,"source":5}],"materials":[{"name":"cedar","pbrMetallicRoughness":{"baseColorTexture":{"index":1},"metallicRoughnessTexture":{"index":2}},"normalTexture":{"index":0},"doubleSided":true},{"name":"timber","pbrMetallicRoughness":{"baseColorTexture":{"index":4},"metallicRoughnessTexture":{"index":5}},"normalTexture":{"index":3},"doubleSided":true}],"meshes":[{"primitives":[{"attributes":{"POSITION":0,"NORMAL":1,"TEXCOORD_0":2},"indices":3,"material":0},{"attributes":{"POSITION":4,"NORMAL":5,"TEXCOORD_0":6},"indices":7,"material":1}]}],"nodes":[{"mesh":0}],"scenes":[{"name":"Scene","nodes":[0]}],"scene":0}