{"asset":{"version":"2.0","generator":"gltfpack 1.2"},"buffers":[{"uri":"roof_ridge.bin","byteLength":35472}],"bufferViews":[{"buffer":0,"byteOffset":0,"byteLength":10764,"byteStride":12,"target":34962},{"buffer":0,"byteOffset":10764,"byteLength":10764,"byteStride":12,"target":34962},{"buffer":0,"byteOffset":21528,"byteLength":7176,"byteStride":8,"target":34962},{"buffer":0,"byteOffset":28704,"byteLength":6768,"target":34963}],"accessors":[{"bufferView":0,"byteOffset":0,"componentType":5126,"count":897,"type":"VEC3","min":[-0.903000057,0,-0.150000006],"max":[0.903000057,0.290000021,0.150000006]},{"bufferView":1,"byteOffset":0,"componentType":5126,"count":897,"type":"VEC3"},{"bufferView":2,"byteOffset":0,"componentType":5126,"count":897,"type":"VEC2"},{"bufferView":3,"byteOffset":0,"componentType":5123,"count":3384,"type":"SCALAR"}],"samplers":[{"magFilter":9729,"minFilter":9987}],"images":[{"name":"tile_normal","uri":"textures/e16cbe6c7bec14c7748e.png"},{"name":"tile_basecolor","uri":"textures/7368007b3638af2e3338.png"},{"name":"tile_metallic-tile_roughness","uri":"textures/b1ea919bad75b43b7b20.png"}],"textures":[{"sampler":0,"source":0},{"sampler":0,"source":1},{"sampler":0,"source":2}],"materials":[{"name":"tile","pbrMetallicRoughness":{"baseColorTexture":{"index":1},"metallicRoughnessTexture":{"index":2}},"normalTexture":{"index":0},"doubleSided":true}],"meshes":[{"primitives":[{"attributes":{"POSITION":0,"NORMAL":1,"TEXCOORD_0":2},"indices":3,"material":0}]}],"nodes":[{"mesh":0}],"scenes":[{"name":"Scene","nodes":[0]}],"scene":0}