{"asset":{"version":"2.0","generator":"gltfpack 1.2"},"buffers":[{"uri":"roof_eave.bin","byteLength":93576}],"bufferViews":[{"buffer":0,"byteOffset":0,"byteLength":31392,"byteStride":12,"target":34962},{"buffer":0,"byteOffset":31392,"byteLength":31392,"byteStride":12,"target":34962},{"buffer":0,"byteOffset":62784,"byteLength":20928,"byteStride":8,"target":34962},{"buffer":0,"byteOffset":83712,"byteLength":9864,"target":34963}],"accessors":[{"bufferView":0,"byteOffset":0,"componentType":5126,"count":24,"type":"VEC3","min":[-0.899999976,0,-0.449999988],"max":[0.899999976,0.354999989,0.449999988]},{"bufferView":1,"byteOffset":0,"componentType":5126,"count":24,"type":"VEC3"},{"bufferView":2,"byteOffset":0,"componentType":5126,"count":24,"type":"VEC2"},{"bufferView":3,"byteOffset":0,"componentType":5123,"count":36,"type":"SCALAR"},{"bufferView":0,"byteOffset":288,"componentType":5126,"count":2592,"type":"VEC3","min":[-0.899999976,0.0670000017,-0.465000004],"max":[0.899999976,0.395666659,0.449999988]},{"bufferView":1,"byteOffset":288,"componentType":5126,"count":2592,"type":"VEC3"},{"bufferView":2,"byteOffset":192,"componentType":5126,"count":2592,"type":"VEC2"},{"bufferView":3,"byteOffset":72,"componentType":5123,"count":4896,"type":"SCALAR"}],"samplers":[{"magFilter":9729,"minFilter":9987}],"images":[{"name":"timber_normal","uri":"textures/c871d8a8e8aa15f23cf3.png"},{"name":"timber_basecolor","uri":"textures/62dd94c433c42bffb8e5.png"},{"name":"timber_metallic-timber_roughness","uri":"textures/3d047fc263888f425df8.png"},{"name":"tile_normal","uri":"textures/e16cbe6c7bec14c7748e.png"},{"name":"tile_basecolor","uri":"textures/7368007b3638af2e3338.png"},{"name":"tile_metallic-tile_roughness","uri":"textures/b1ea919bad75b43b7b20.png"}],"textures":[{"sampler":0,"source":0},{"sampler":0,"source":1},{"sampler":0,"source":2},{"sampler":0,"source":3},{"sampler":0,"source":4},{"sampler":0,"source":5}],"materials":[{"name":"timber","pbrMetallicRoughness":{"baseColorTexture":{"index":1},"metallicRoughnessTexture":{"index":2}},"normalTexture":{"index":0},"doubleSided":true},{"name":"tile","pbrMetallicRoughness":{"baseColorTexture":{"index":4},"metallicRoughnessTexture":{"index":5}},"normalTexture":{"index":3},"doubleSided":true}],"meshes":[{"primitives":[{"attributes":{"POSITION":0,"NORMAL":1,"TEXCOORD_0":2},"indices":3,"material":0},{"attributes":{"POSITION":4,"NORMAL":5,"TEXCOORD_0":6},"indices":7,"material":1}]}],"nodes":[{"mesh":0}],"scenes":[{"name":"Scene","nodes":[0]}],"scene":0}