{"asset":{"version":"2.0","generator":"gltfpack 1.2"},"buffers":[{"uri":"shoji.bin","byteLength":22840}],"bufferViews":[{"buffer":0,"byteOffset":0,"byteLength":6648,"byteStride":12,"target":34962},{"buffer":0,"byteOffset":6648,"byteLength":6648,"byteStride":12,"target":34962},{"buffer":0,"byteOffset":13296,"byteLength":4432,"byteStride":8,"target":34962},{"buffer":0,"byteOffset":17728,"byteLength":5112,"target":34963}],"accessors":[{"bufferView":0,"byteOffset":0,"componentType":5126,"count":171,"type":"VEC3","min":[-0.450000018,0,-0.0299999993],"max":[0.450000018,2.05000019,0.0299999993]},{"bufferView":1,"byteOffset":0,"componentType":5126,"count":171,"type":"VEC3"},{"bufferView":2,"byteOffset":0,"componentType":5126,"count":171,"type":"VEC2"},{"bufferView":3,"byteOffset":0,"componentType":5123,"count":786,"type":"SCALAR"},{"bufferView":0,"byteOffset":2052,"componentType":5126,"count":41,"type":"VEC3","min":[-0.340000004,0.104999959,-0.00600000005],"max":[0.340000004,1.94499993,0.00600000005]},{"bufferView":1,"byteOffset":2052,"componentType":5126,"count":41,"type":"VEC3"},{"bufferView":2,"byteOffset":1368,"componentType":5126,"count":41,"type":"VEC2"},{"bufferView":3,"byteOffset":1572,"componentType":5123,"count":192,"type":"SCALAR"},{"bufferView":0,"byteOffset":2544,"componentType":5126,"count":342,"type":"VEC3","min":[-0.354999989,0.094999969,-0.0329999998],"max":[0.354999989,1.95499992,0.0329999998]},{"bufferView":1,"byteOffset":2544,"componentType":5126,"count":342,"type":"VEC3"},{"bufferView":2,"byteOffset":1696,"componentType":5126,"count":342,"type":"VEC2"},{"bufferView":3,"byteOffset":1956,"componentType":5123,"count":1578,"type":"SCALAR"}],"samplers":[{"magFilter":9729,"minFilter":9987}],"images":[{"name":"timber_normal","uri":"textures/c871d8a8e8aa15f23cf3.png"},{"name":"timber_basecolor","uri":"textures/62dd94c433c42bffb8e5.png"},{"name":"timber_metallic-timber_roughness","uri":"textures/3d047fc263888f425df8.png"},{"name":"paper_normal","uri":"textures/343792d3de74eb2acc12.png"},{"name":"paper_basecolor","uri":"textures/04eb6ed1cc7581ceec8f.png"},{"name":"paper_metallic-paper_roughness","uri":"textures/5dbb8fff6077db12a6d8.png"},{"name":"cedar_normal","uri":"textures/e525af41a3c15c2bd8c5.png"},{"name":"cedar_basecolor","uri":"textures/a0b340b679c629cf3499.png"},{"name":"cedar_metallic-cedar_roughness","uri":"textures/1f7898a34a89b61839e3.png"}],"textures":[{"sampler":0,"source":0},{"sampler":0,"source":1},{"sampler":0,"source":2},{"sampler":0,"source":3},{"sampler":0,"source":4},{"sampler":0,"source":5},{"sampler":0,"source":6},{"sampler":0,"source":7},{"sampler":0,"source":8}],"materials":[{"name":"timber","pbrMetallicRoughness":{"baseColorTexture":{"index":1},"metallicRoughnessTexture":{"index":2}},"normalTexture":{"index":0},"doubleSided":true},{"name":"paper","pbrMetallicRoughness":{"baseColorTexture":{"index":4},"metallicRoughnessTexture":{"index":5}},"normalTexture":{"index":3},"doubleSided":true},{"name":"cedar","pbrMetallicRoughness":{"baseColorTexture":{"index":7},"metallicRoughnessTexture":{"index":8}},"normalTexture":{"index":6},"doubleSided":true}],"meshes":[{"primitives":[{"attributes":{"POSITION":0,"NORMAL":1,"TEXCOORD_0":2},"indices":3,"material":0},{"attributes":{"POSITION":4,"NORMAL":5,"TEXCOORD_0":6},"indices":7,"material":1},{"attributes":{"POSITION":8,"NORMAL":9,"TEXCOORD_0":10},"indices":11,"material":2}]}],"nodes":[{"mesh":0}],"scenes":[{"name":"Scene","nodes":[0]}],"scene":0}