{"asset":{"version":"2.0","generator":"gltfpack 1.2"},"buffers":[{"uri":"sill.bin","byteLength":1728}],"bufferViews":[{"buffer":0,"byteOffset":0,"byteLength":504,"byteStride":12,"target":34962},{"buffer":0,"byteOffset":504,"byteLength":504,"byteStride":12,"target":34962},{"buffer":0,"byteOffset":1008,"byteLength":336,"byteStride":8,"target":34962},{"buffer":0,"byteOffset":1344,"byteLength":384,"target":34963}],"accessors":[{"bufferView":0,"byteOffset":0,"componentType":5126,"count":42,"type":"VEC3","min":[-0.899999976,0,-0.0799999982],"max":[0.899999976,0.119999997,0.0799999982]},{"bufferView":1,"byteOffset":0,"componentType":5126,"count":42,"type":"VEC3"},{"bufferView":2,"byteOffset":0,"componentType":5126,"count":42,"type":"VEC2"},{"bufferView":3,"byteOffset":0,"componentType":5123,"count":192,"type":"SCALAR"}],"samplers":[{"magFilter":9729,"minFilter":9987}],"images":[{"name":"timber_normal","uri":"textures/c871d8a8e8aa15f23cf3.png"},{"name":"timber_basecolor","uri":"textures/62dd94c433c42bffb8e5.png"},{"name":"timber_metallic-timber_roughness","uri":"textures/3d047fc263888f425df8.png"}],"textures":[{"sampler":0,"source":0},{"sampler":0,"source":1},{"sampler":0,"source":2}],"materials":[{"name":"timber","pbrMetallicRoughness":{"baseColorTexture":{"index":1},"metallicRoughnessTexture":{"index":2}},"normalTexture":{"index":0},"doubleSided":true}],"meshes":[{"primitives":[{"attributes":{"POSITION":0,"NORMAL":1,"TEXCOORD_0":2},"indices":3,"material":0}]}],"nodes":[{"mesh":0}],"scenes":[{"name":"Scene","nodes":[0]}],"scene":0}