{"asset":{"version":"2.0","generator":"gltfpack 1.2"},"buffers":[{"uri":"step.bin","byteLength":3988}],"bufferViews":[{"buffer":0,"byteOffset":0,"byteLength":1176,"byteStride":12,"target":34962},{"buffer":0,"byteOffset":1176,"byteLength":1176,"byteStride":12,"target":34962},{"buffer":0,"byteOffset":2352,"byteLength":784,"byteStride":8,"target":34962},{"buffer":0,"byteOffset":3136,"byteLength":852,"target":34963}],"accessors":[{"bufferView":0,"byteOffset":0,"componentType":5126,"count":98,"type":"VEC3","min":[-0.600000024,0,-0.375],"max":[0.600000024,0.360000014,0.375]},{"bufferView":1,"byteOffset":0,"componentType":5126,"count":98,"type":"VEC3"},{"bufferView":2,"byteOffset":0,"componentType":5126,"count":98,"type":"VEC2"},{"bufferView":3,"byteOffset":0,"componentType":5123,"count":426,"type":"SCALAR"}],"samplers":[{"magFilter":9729,"minFilter":9987}],"images":[{"name":"stone_normal","uri":"textures/81011a4388e7758780d9.png"},{"name":"stone_basecolor","uri":"textures/2543938f684f243dc5e9.png"},{"name":"stone_metallic-stone_roughness","uri":"textures/97d05893a7af12ffa21a.png"}],"textures":[{"sampler":0,"source":0},{"sampler":0,"source":1},{"sampler":0,"source":2}],"materials":[{"name":"stone","pbrMetallicRoughness":{"baseColorTexture":{"index":1},"metallicRoughnessTexture":{"index":2}},"normalTexture":{"index":0},"doubleSided":true}],"meshes":[{"primitives":[{"attributes":{"POSITION":0,"NORMAL":1,"TEXCOORD_0":2},"indices":3,"material":0}]}],"nodes":[{"mesh":0}],"scenes":[{"name":"Scene","nodes":[0]}],"scene":0}