{"asset":{"version":"2.0","generator":"gltfpack 1.2"},"buffers":[{"uri":"tatami.bin","byteLength":5292}],"bufferViews":[{"buffer":0,"byteOffset":0,"byteLength":1548,"byteStride":12,"target":34962},{"buffer":0,"byteOffset":1548,"byteLength":1548,"byteStride":12,"target":34962},{"buffer":0,"byteOffset":3096,"byteLength":1032,"byteStride":8,"target":34962},{"buffer":0,"byteOffset":4128,"byteLength":1164,"target":34963}],"accessors":[{"bufferView":0,"byteOffset":0,"componentType":5126,"count":42,"type":"VEC3","min":[-0.449999988,0,-0.899999976],"max":[0.449999988,0.0549999997,0.899999976]},{"bufferView":1,"byteOffset":0,"componentType":5126,"count":42,"type":"VEC3"},{"bufferView":2,"byteOffset":0,"componentType":5126,"count":42,"type":"VEC2"},{"bufferView":3,"byteOffset":0,"componentType":5123,"count":192,"type":"SCALAR"},{"bufferView":0,"byteOffset":504,"componentType":5126,"count":87,"type":"VEC3","min":[-0.449500024,0.0469999984,-0.899999976],"max":[0.449500024,0.0590000004,0.899999976]},{"bufferView":1,"byteOffset":504,"componentType":5126,"count":87,"type":"VEC3"},{"bufferView":2,"byteOffset":336,"componentType":5126,"count":87,"type":"VEC2"},{"bufferView":3,"byteOffset":384,"componentType":5123,"count":390,"type":"SCALAR"}],"samplers":[{"magFilter":9729,"minFilter":9987}],"images":[{"name":"tatami_normal","uri":"textures/0be5776ba2995115ef04.png"},{"name":"tatami_basecolor","uri":"textures/a87c9b0b86db10d263f1.png"},{"name":"tatami_metallic-tatami_roughness","uri":"textures/569d34c27383e36eeb3f.png"},{"name":"indigo_normal","uri":"textures/3e49ec54aa721d9083d0.png"},{"name":"indigo_basecolor","uri":"textures/56ca31e9ca49496d5262.png"},{"name":"indigo_metallic-indigo_roughness","uri":"textures/e2bb65305c30ae96177f.png"}],"textures":[{"sampler":0,"source":0},{"sampler":0,"source":1},{"sampler":0,"source":2},{"sampler":0,"source":3},{"sampler":0,"source":4},{"sampler":0,"source":5}],"materials":[{"name":"tatami","pbrMetallicRoughness":{"baseColorTexture":{"index":1},"metallicRoughnessTexture":{"index":2}},"normalTexture":{"index":0},"doubleSided":true},{"name":"indigo","pbrMetallicRoughness":{"baseColorTexture":{"index":4},"metallicRoughnessTexture":{"index":5}},"normalTexture":{"index":3},"doubleSided":true}],"meshes":[{"primitives":[{"attributes":{"POSITION":0,"NORMAL":1,"TEXCOORD_0":2},"indices":3,"material":0},{"attributes":{"POSITION":4,"NORMAL":5,"TEXCOORD_0":6},"indices":7,"material":1}]}],"nodes":[{"mesh":0}],"scenes":[{"name":"Scene","nodes":[0]}],"scene":0}