{"asset":{"version":"2.0","generator":"gltfpack 1.2"},"buffers":[{"uri":"zabuton.bin","byteLength":11668}],"bufferViews":[{"buffer":0,"byteOffset":0,"byteLength":3444,"byteStride":12,"target":34962},{"buffer":0,"byteOffset":3444,"byteLength":3444,"byteStride":12,"target":34962},{"buffer":0,"byteOffset":6888,"byteLength":2296,"byteStride":8,"target":34962},{"buffer":0,"byteOffset":9184,"byteLength":2484,"target":34963}],"accessors":[{"bufferView":0,"byteOffset":0,"componentType":5126,"count":110,"type":"VEC3","min":[-0.25999999,0,-0.25999999],"max":[0.25999999,0.0859999955,0.25999999]},{"bufferView":1,"byteOffset":0,"componentType":5126,"count":110,"type":"VEC3"},{"bufferView":2,"byteOffset":0,"componentType":5126,"count":110,"type":"VEC2"},{"bufferView":3,"byteOffset":0,"componentType":5123,"count":456,"type":"SCALAR"},{"bufferView":0,"byteOffset":1320,"componentType":5126,"count":177,"type":"VEC3","min":[-0.252000004,0.0319999978,-0.252000004],"max":[0.252000004,0.0399999991,0.252000004]},{"bufferView":1,"byteOffset":1320,"componentType":5126,"count":177,"type":"VEC3"},{"bufferView":2,"byteOffset":880,"componentType":5126,"count":177,"type":"VEC2"},{"bufferView":3,"byteOffset":912,"componentType":5123,"count":786,"type":"SCALAR"}],"samplers":[{"magFilter":9729,"minFilter":9987}],"images":[{"name":"indigo_normal","uri":"textures/3e49ec54aa721d9083d0.png"},{"name":"indigo_basecolor","uri":"textures/56ca31e9ca49496d5262.png"},{"name":"indigo_metallic-indigo_roughness","uri":"textures/e2bb65305c30ae96177f.png"},{"name":"bamboo_normal","uri":"textures/9724c2499c63a76ef73e.png"},{"name":"bamboo_basecolor","uri":"textures/d0c7724e287449d7c031.png"},{"name":"bamboo_metallic-bamboo_roughness","uri":"textures/eee353eb130e85ea981b.png"}],"textures":[{"sampler":0,"source":0},{"sampler":0,"source":1},{"sampler":0,"source":2},{"sampler":0,"source":3},{"sampler":0,"source":4},{"sampler":0,"source":5}],"materials":[{"name":"indigo","pbrMetallicRoughness":{"baseColorTexture":{"index":1},"metallicRoughnessTexture":{"index":2}},"normalTexture":{"index":0},"doubleSided":true},{"name":"bamboo","pbrMetallicRoughness":{"baseColorTexture":{"index":4},"metallicRoughnessTexture":{"index":5}},"normalTexture":{"index":3},"doubleSided":true}],"meshes":[{"primitives":[{"attributes":{"POSITION":0,"NORMAL":1,"TEXCOORD_0":2},"indices":3,"material":0},{"attributes":{"POSITION":4,"NORMAL":5,"TEXCOORD_0":6},"indices":7,"material":1}]}],"nodes":[{"mesh":0}],"scenes":[{"name":"Scene","nodes":[0]}],"scene":0}